999
dxflib 2.0.4.8
  0
SECTION
  2
HEADER
  9
$ACADVER
  1
AC1015
  9
$HANDSEED
  5
FFFF
  9
$DIMADEC
 70
2
  9
$GRIDUNIT
 10
0.0
 20
0.0
  9
$DIMASZ
 40
2.5
  9
$DIMGAP
 40
0.625
  9
$LUNITS
 70
2
  9
$AUPREC
 70
2
  9
$SPLINESEGS
 70
8
  9
$INSUNITS
 70
4
  9
$DIMEXO
 40
0.625
  9
$DIMLUNIT
 70
2
  9
$GRIDMODE
 70
1
  9
$DIMTXT
 40
2.5
  9
$LUPREC
 70
4
  9
$DIMSTYLE
  2
Standard
  9
$PLIMMIN
 10
0.0
 20
0.0
  9
$PLIMMAX
 10
420.0
 20
594.0
  9
$DIMEXE
 40
1.25
  9
$DIMAUNIT
 70
0
  9
$AUNITS
 70
0
  0
ENDSEC
  0
SECTION
  2
TABLES
  0
TABLE
  2
VPORT
  5
8
100
AcDbSymbolTable
 70
1
  0
VPORT
  5
30
100
AcDbSymbolTableRecord
100
AcDbViewportTableRecord
  2
*Active
 70
0
 10
0.0
 20
0.0
 11
1.0
 21
1.0
 12
286.3055555555554861
 22
148.5
 13
0.0
 23
0.0
 14
10.0
 24
10.0
 15
10.0
 25
10.0
 16
0.0
 26
0.0
 36
1.0
 17
0.0
 27
0.0
 37
0.0
 40
297.0
 41
1.92798353909465
 42
50.0
 43
0.0
 44
0.0
 50
0.0
 51
0.0
 71
0
 72
100
 73
1
 74
3
 75
1
 76
1
 77
0
 78
0
281
0
 65
1
110
0.0
120
0.0
130
0.0
111
1.0
121
0.0
131
0.0
112
0.0
122
1.0
132
0.0
 79
0
146
0.0
  0
ENDTAB
  0
TABLE
  2
LTYPE
  5
5
100
AcDbSymbolTable
 70
21
  0
LTYPE
  5
14
100
AcDbSymbolTableRecord
100
AcDbLinetypeTableRecord
  2
ByBlock
 70
0
  3

 72
65
 73
0
 40
0.0
  0
LTYPE
  5
15
100
AcDbSymbolTableRecord
100
AcDbLinetypeTableRecord
  2
ByLayer
 70
0
  3

 72
65
 73
0
 40
0.0
  0
LTYPE
  5
16
100
AcDbSymbolTableRecord
100
AcDbLinetypeTableRecord
  2
CONTINUOUS
 70
0
  3
Solid line
 72
65
 73
0
 40
0.0
  0
LTYPE
  5
31
100
AcDbSymbolTableRecord
100
AcDbLinetypeTableRecord
  2
DOT
 70
0
  3
Dot . . . . . . . . . . . . . . . . . . . . . .
 72
65
 73
2
 40
6.3499999999999996
 49
0.0
 74
0
 49
-6.3499999999999996
 74
0
  0
LTYPE
  5
32
100
AcDbSymbolTableRecord
100
AcDbLinetypeTableRecord
  2
DOT2
 70
0
  3
Dot (.5x) .....................................
 72
65
 73
2
 40
3.1749999999999998
 49
0.0
 74
0
 49
-3.1749999999999998
 74
0
  0
LTYPE
  5
33
100
AcDbSymbolTableRecord
100
AcDbLinetypeTableRecord
  2
DOTX2
 70
0
  3
Dot (2x) .  .  .  .  .  .  .  .  .  .  .  .  .
 72
65
 73
2
 40
12.6999999999999993
 49
0.0
 74
0
 49
-12.6999999999999993
 74
0
  0
LTYPE
  5
34
100
AcDbSymbolTableRecord
100
AcDbLinetypeTableRecord
  2
DASHED
 70
0
  3
Dashed __ __ __ __ __ __ __ __ __ __ __ __ __ _
 72
65
 73
2
 40
19.0500000000000007
 49
12.6999999999999993
 74
0
 49
-6.3499999999999996
 74
0
  0
LTYPE
  5
35
100
AcDbSymbolTableRecord
100
AcDbLinetypeTableRecord
  2
DASHED2
 70
0
  3
Dashed (.5x) _ _ _ _ _ _ _ _ _ _ _ _ _ _ _ _ _
 72
65
 73
2
 40
9.5250000000000004
 49
6.3499999999999996
 74
0
 49
-3.1749999999999998
 74
0
  0
LTYPE
  5
36
100
AcDbSymbolTableRecord
100
AcDbLinetypeTableRecord
  2
DASHEDX2
 70
0
  3
Dashed (2x) ____  ____  ____  ____  ____  ___
 72
65
 73
2
 40
38.1000000000000014
 49
25.3999999999999986
 74
0
 49
-12.6999999999999993
 74
0
  0
LTYPE
  5
37
100
AcDbSymbolTableRecord
100
AcDbLinetypeTableRecord
  2
DASHDOT
 70
0
  3
Dash dot __ . __ . __ . __ . __ . __ . __ . __
 72
65
 73
4
 40
25.3999999999999986
 49
12.6999999999999993
 74
0
 49
-6.3499999999999996
 74
0
 49
0.0
 74
0
 49
-6.3499999999999996
 74
0
  0
LTYPE
  5
38
100
AcDbSymbolTableRecord
100
AcDbLinetypeTableRecord
  2
DASHDOT2
 70
0
  3
Dash dot (.5x) _._._._._._._._._._._._._._._.
 72
65
 73
4
 40
12.6999999999999993
 49
6.3499999999999996
 74
0
 49
-3.1749999999999998
 74
0
 49
0.0
 74
0
 49
-3.1749999999999998
 74
0
  0
LTYPE
  5
39
100
AcDbSymbolTableRecord
100
AcDbLinetypeTableRecord
  2
DASHDOTX2
 70
0
  3
Dash dot (2x) ____  .  ____  .  ____  .  ___
 72
65
 73
4
 40
50.7999999999999972
 49
25.3999999999999986
 74
0
 49
-12.6999999999999993
 74
0
 49
0.0
 74
0
 49
-12.6999999999999993
 74
0
  0
LTYPE
  5
3A
100
AcDbSymbolTableRecord
100
AcDbLinetypeTableRecord
  2
DIVIDE
 70
0
  3
Divide ____ . . ____ . . ____ . . ____ . . ____
 72
65
 73
6
 40
31.75
 49
12.6999999999999993
 74
0
 49
-6.3499999999999996
 74
0
 49
0.0
 74
0
 49
-6.3499999999999996
 74
0
 49
0.0
 74
0
 49
-6.3499999999999996
 74
0
  0
LTYPE
  5
3B
100
AcDbSymbolTableRecord
100
AcDbLinetypeTableRecord
  2
DIVIDE2
 70
0
  3
Divide (.5x) __..__..__..__..__..__..__..__.._
 72
65
 73
6
 40
15.875
 49
6.3499999999999996
 74
0
 49
-3.1749999999999998
 74
0
 49
0.0
 74
0
 49
-3.1749999999999998
 74
0
 49
0.0
 74
0
 49
-3.1749999999999998
 74
0
  0
LTYPE
  5
3C
100
AcDbSymbolTableRecord
100
AcDbLinetypeTableRecord
  2
DIVIDEX2
 70
0
  3
Divide (2x) ________  .  .  ________  .  .  _
 72
65
 73
6
 40
63.5
 49
25.3999999999999986
 74
0
 49
-12.6999999999999993
 74
0
 49
0.0
 74
0
 49
-12.6999999999999993
 74
0
 49
0.0
 74
0
 49
-12.6999999999999993
 74
0
  0
LTYPE
  5
3D
100
AcDbSymbolTableRecord
100
AcDbLinetypeTableRecord
  2
CENTER
 70
0
  3
Center ____ _ ____ _ ____ _ ____ _ ____ _ ____
 72
65
 73
4
 40
50.7999999999999972
 49
31.75
 74
0
 49
-6.3499999999999996
 74
0
 49
6.3499999999999996
 74
0
 49
-6.3499999999999996
 74
0
  0
LTYPE
  5
3E
100
AcDbSymbolTableRecord
100
AcDbLinetypeTableRecord
  2
CENTER2
 70
0
  3
Center (.5x) ___ _ ___ _ ___ _ ___ _ ___ _ ___
 72
65
 73
4
 40
28.5749999999999993
 49
19.0500000000000007
 74
0
 49
-3.1749999999999998
 74
0
 49
3.1749999999999998
 74
0
 49
-3.1749999999999998
 74
0
  0
LTYPE
  5
3F
100
AcDbSymbolTableRecord
100
AcDbLinetypeTableRecord
  2
CENTERX2
 70
0
  3
Center (2x) ________  __  ________  __  _____
 72
65
 73
4
 40
101.5999999999999943
 49
63.5
 74
0
 49
-12.6999999999999993
 74
0
 49
12.6999999999999993
 74
0
 49
-12.6999999999999993
 74
0
  0
LTYPE
  5
40
100
AcDbSymbolTableRecord
100
AcDbLinetypeTableRecord
  2
BORDER
 70
0
  3
Border __ __ . __ __ . __ __ . __ __ . __ __ .
 72
65
 73
6
 40
44.4500000000000028
 49
12.6999999999999993
 74
0
 49
-6.3499999999999996
 74
0
 49
12.6999999999999993
 74
0
 49
-6.3499999999999996
 74
0
 49
0.0
 74
0
 49
-6.3499999999999996
 74
0
  0
LTYPE
  5
41
100
AcDbSymbolTableRecord
100
AcDbLinetypeTableRecord
  2
BORDER2
 70
0
  3
Border (.5x) __.__.__.__.__.__.__.__.__.__.__.
 72
65
 73
6
 40
22.2250000000000014
 49
6.3499999999999996
 74
0
 49
-3.1749999999999998
 74
0
 49
6.3499999999999996
 74
0
 49
-3.1749999999999998
 74
0
 49
0.0
 74
0
 49
-3.1749999999999998
 74
0
  0
LTYPE
  5
42
100
AcDbSymbolTableRecord
100
AcDbLinetypeTableRecord
  2
BORDERX2
 70
0
  3
Border (2x) ____  ____  .  ____  ____  .  ___
 72
65
 73
6
 40
88.9000000000000057
 49
25.3999999999999986
 74
0
 49
-12.6999999999999993
 74
0
 49
25.3999999999999986
 74
0
 49
-12.6999999999999993
 74
0
 49
0.0
 74
0
 49
-12.6999999999999993
 74
0
  0
ENDTAB
  0
TABLE
  2
LAYER
  5
2
100
AcDbSymbolTable
 70
2
  0
LAYER
  5
10
100
AcDbSymbolTableRecord
100
AcDbLayerTableRecord
  2
0
 70
0
 62
7
  6
CONTINUOUS
370
0
390
F
  0
LAYER
  5
43
100
AcDbSymbolTableRecord
100
AcDbLayerTableRecord
  2
cut
 70
0
 62
3
  6
CONTINUOUS
370
0
390
F
  0
ENDTAB
  0
TABLE
  2
STYLE
  5
3
100
AcDbSymbolTable
 70
1
  0
STYLE
  5
11
100
AcDbSymbolTableRecord
100
AcDbTextStyleTableRecord
  2
Standard
 70
0
 40
0.0
 41
0.75
 50
0.0
 71
0
 42
2.5
  3
txt
  4

  0
ENDTAB
  0
TABLE
  2
VIEW
  5
6
100
AcDbSymbolTable
 70
0
  0
ENDTAB
  0
TABLE
  2
UCS
  5
7
100
AcDbSymbolTable
 70
0
  0
ENDTAB
  0
TABLE
  2
APPID
  5
9
100
AcDbSymbolTable
 70
1
  0
APPID
  5
12
100
AcDbSymbolTableRecord
100
AcDbRegAppTableRecord
  2
ACAD
 70
0
  0
ENDTAB
  0
TABLE
  2
DIMSTYLE
  5
A
100
AcDbSymbolTable
 70
1
100
AcDbDimStyleTable
 71
0
  0
DIMSTYLE
105
27
100
AcDbSymbolTableRecord
100
AcDbDimStyleTableRecord
  2
Standard
 41
2.5
 42
0.625
 43
3.75
 44
1.25
 70
0
 73
0
 74
0
 77
1
 78
8
140
2.5
141
2.5
143
0.03937007874016
147
0.625
171
3
172
1
271
2
272
2
274
3
278
44
283
0
284
8
340
11
  0
ENDTAB
  0
TABLE
  2
BLOCK_RECORD
  5
1
100
AcDbSymbolTable
 70
1
  0
BLOCK_RECORD
  5
1F
100
AcDbSymbolTableRecord
100
AcDbBlockTableRecord
  2
*Model_Space
340
22
  0
BLOCK_RECORD
  5
1B
100
AcDbSymbolTableRecord
100
AcDbBlockTableRecord
  2
*Paper_Space
340
1E
  0
BLOCK_RECORD
  5
23
100
AcDbSymbolTableRecord
100
AcDbBlockTableRecord
  2
*Paper_Space0
340
26
  0
BLOCK_RECORD
  5
44
100
AcDbSymbolTableRecord
100
AcDbBlockTableRecord
  2
din a3
340
0
  0
BLOCK_RECORD
  5
45
100
AcDbSymbolTableRecord
100
AcDbBlockTableRecord
  2
kasten A 4x
340
0
  0
BLOCK_RECORD
  5
46
100
AcDbSymbolTableRecord
100
AcDbBlockTableRecord
  2
kasten B 4x
340
0
  0
BLOCK_RECORD
  5
47
100
AcDbSymbolTableRecord
100
AcDbBlockTableRecord
  2
aussen A 4x
340
0
  0
BLOCK_RECORD
  5
48
100
AcDbSymbolTableRecord
100
AcDbBlockTableRecord
  2
aussen B 4x
340
0
  0
BLOCK_RECORD
  5
49
100
AcDbSymbolTableRecord
100
AcDbBlockTableRecord
  2
innen A 5x
340
0
  0
BLOCK_RECORD
  5
4A
100
AcDbSymbolTableRecord
100
AcDbBlockTableRecord
  2
innen B 5x
340
0
  0
BLOCK_RECORD
  5
4B
100
AcDbSymbolTableRecord
100
AcDbBlockTableRecord
  2
kasten C 2x
340
0
  0
BLOCK_RECORD
  5
4C
100
AcDbSymbolTableRecord
100
AcDbBlockTableRecord
  2
innen C 2x
340
0
  0
BLOCK_RECORD
  5
4D
100
AcDbSymbolTableRecord
100
AcDbBlockTableRecord
  2
aussen C 2x
340
0
  0
ENDTAB
  0
ENDSEC
  0
SECTION
  2
BLOCKS
  0
BLOCK
  5
20
100
AcDbEntity
  8
0
100
AcDbBlockBegin
  2
*Model_Space
 70
0
 10
0.0
 20
0.0
 30
0.0
  3
*Model_Space
  1

  0
ENDBLK
  5
21
100
AcDbEntity
  8
0
100
AcDbBlockEnd
  0
BLOCK
  5
1C
100
AcDbEntity
 67
1
  8
0
100
AcDbBlockBegin
  2
*Paper_Space
 70
0
 10
0.0
 20
0.0
 30
0.0
  3
*Paper_Space
  1

  0
ENDBLK
  5
1D
100
AcDbEntity
 67
1
  8
0
100
AcDbBlockEnd
  0
BLOCK
  5
24
100
AcDbEntity
  8
0
100
AcDbBlockBegin
  2
*Paper_Space0
 70
0
 10
0.0
 20
0.0
 30
0.0
  3
*Paper_Space0
  1

  0
ENDBLK
  5
25
100
AcDbEntity
  8
0
100
AcDbBlockEnd
  0
BLOCK
  5
4E
100
AcDbEntity
  8
0
100
AcDbBlockBegin
  2
din a3
 70
0
 10
0.0
 20
0.0
 30
0.0
  3
din a3
  1

  0
LINE
  5
4F
100
AcDbEntity
100
AcDbLine
  8
0
 62
256
370
-1
  6
ByLayer
 10
0.0
 20
0.0
 30
0.0
 11
420.0
 21
0.0
 31
0.0
  0
LINE
  5
50
100
AcDbEntity
100
AcDbLine
  8
0
 62
256
370
-1
  6
ByLayer
 10
420.0
 20
0.0
 30
0.0
 11
420.0
 21
297.0
 31
0.0
  0
LINE
  5
51
100
AcDbEntity
100
AcDbLine
  8
0
 62
256
370
-1
  6
ByLayer
 10
420.0
 20
297.0
 30
0.0
 11
0.0
 21
297.0
 31
0.0
  0
LINE
  5
52
100
AcDbEntity
100
AcDbLine
  8
0
 62
256
370
-1
  6
ByLayer
 10
0.0
 20
297.0
 30
0.0
 11
0.0
 21
0.0
 31
0.0
  0
ENDBLK
  5
53
100
AcDbEntity
  8
0
100
AcDbBlockEnd
  0
BLOCK
  5
54
100
AcDbEntity
  8
0
100
AcDbBlockBegin
  2
kasten A 4x
 70
0
 10
0.0
 20
0.0
 30
0.0
  3
kasten A 4x
  1

  0
ENDBLK
  5
55
100
AcDbEntity
  8
0
100
AcDbBlockEnd
  0
BLOCK
  5
56
100
AcDbEntity
  8
0
100
AcDbBlockBegin
  2
kasten B 4x
 70
0
 10
0.0
 20
0.0
 30
0.0
  3
kasten B 4x
  1

  0
ENDBLK
  5
57
100
AcDbEntity
  8
0
100
AcDbBlockEnd
  0
BLOCK
  5
58
100
AcDbEntity
  8
0
100
AcDbBlockBegin
  2
aussen A 4x
 70
0
 10
0.0
 20
0.0
 30
0.0
  3
aussen A 4x
  1

  0
LINE
  5
59
100
AcDbEntity
100
AcDbLine
  8
cut
 62
256
370
-1
  6
ByLayer
 10
-112.0
 20
-10.0
 30
0.0
 11
-108.0
 21
-10.0
 31
0.0
  0
LINE
  5
5A
100
AcDbEntity
100
AcDbLine
  8
cut
 62
256
370
-1
  6
ByLayer
 10
-108.0
 20
-10.0
 30
0.0
 11
-108.0
 21
-20.0
 31
0.0
  0
LINE
  5
5B
100
AcDbEntity
100
AcDbLine
  8
cut
 62
256
370
-1
  6
ByLayer
 10
-108.0
 20
-20.0
 30
0.0
 11
-112.0
 21
-20.0
 31
0.0
  0
LINE
  5
5C
100
AcDbEntity
100
AcDbLine
  8
cut
 62
256
370
-1
  6
ByLayer
 10
-112.0
 20
-20.0
 30
0.0
 11
-112.0
 21
-10.0
 31
0.0
  0
LINE
  5
5D
100
AcDbEntity
100
AcDbLine
  8
cut
 62
256
370
-1
  6
ByLayer
 10
-112.0
 20
-30.0
 30
0.0
 11
-108.0
 21
-30.0
 31
0.0
  0
LINE
  5
5E
100
AcDbEntity
100
AcDbLine
  8
cut
 62
256
370
-1
  6
ByLayer
 10
-108.0
 20
-30.0
 30
0.0
 11
-108.0
 21
-40.0
 31
0.0
  0
LINE
  5
5F
100
AcDbEntity
100
AcDbLine
  8
cut
 62
256
370
-1
  6
ByLayer
 10
-108.0
 20
-40.0
 30
0.0
 11
-112.0
 21
-40.0
 31
0.0
  0
LINE
  5
60
100
AcDbEntity
100
AcDbLine
  8
cut
 62
256
370
-1
  6
ByLayer
 10
-112.0
 20
-40.0
 30
0.0
 11
-112.0
 21
-30.0
 31
0.0
  0
ENDBLK
  5
61
100
AcDbEntity
  8
0
100
AcDbBlockEnd
  0
BLOCK
  5
62
100
AcDbEntity
  8
0
100
AcDbBlockBegin
  2
aussen B 4x
 70
0
 10
0.0
 20
0.0
 30
0.0
  3
aussen B 4x
  1

  0
LINE
  5
63
100
AcDbEntity
100
AcDbLine
  8
cut
 62
256
370
-1
  6
ByLayer
 10
112.0
 20
-50.000000000000199
 30
0.0
 11
108.0
 21
-50.0
 31
0.0
  0
LINE
  5
64
100
AcDbEntity
100
AcDbLine
  8
cut
 62
256
370
-1
  6
ByLayer
 10
108.0
 20
-50.0
 30
0.0
 11
108.0
 21
-39.9999999999999858
 31
0.0
  0
LINE
  5
65
100
AcDbEntity
100
AcDbLine
  8
cut
 62
256
370
-1
  6
ByLayer
 10
108.0
 20
-39.9999999999999858
 30
0.0
 11
112.0
 21
-40.0000000000001137
 31
0.0
  0
LINE
  5
66
100
AcDbEntity
100
AcDbLine
  8
cut
 62
256
370
-1
  6
ByLayer
 10
112.0
 20
-40.0000000000001137
 30
0.0
 11
112.0
 21
-50.000000000000199
 31
0.0
  0
LINE
  5
67
100
AcDbEntity
100
AcDbLine
  8
cut
 62
256
370
-1
  6
ByLayer
 10
112.0
 20
-29.9999999999999858
 30
0.0
 11
108.0
 21
-30.0000000000000284
 31
0.0
  0
LINE
  5
68
100
AcDbEntity
100
AcDbLine
  8
cut
 62
256
370
-1
  6
ByLayer
 10
108.0
 20
-30.0000000000000284
 30
0.0
 11
108.0
 21
-20.0000000000000284
 31
0.0
  0
LINE
  5
69
100
AcDbEntity
100
AcDbLine
  8
cut
 62
256
370
-1
  6
ByLayer
 10
108.0
 20
-20.0000000000000284
 30
0.0
 11
112.0
 21
-20.0
 31
0.0
  0
LINE
  5
6A
100
AcDbEntity
100
AcDbLine
  8
cut
 62
256
370
-1
  6
ByLayer
 10
112.0
 20
-20.0
 30
0.0
 11
112.0
 21
-29.9999999999999858
 31
0.0
  0
ENDBLK
  5
6B
100
AcDbEntity
  8
0
100
AcDbBlockEnd
  0
BLOCK
  5
6C
100
AcDbEntity
  8
0
100
AcDbBlockBegin
  2
innen A 5x
 70
0
 10
0.0
 20
0.0
 30
0.0
  3
innen A 5x
  1

  0
CIRCLE
  5
6D
100
AcDbEntity
100
AcDbCircle
  8
cut
 62
256
370
-1
  6
ByLayer
 10
-175.0
 20
-30.0
 30
0.0
 40
25.0
  0
CIRCLE
  5
6E
100
AcDbEntity
100
AcDbCircle
  8
cut
 62
256
370
-1
  6
ByLayer
 10
-131.0
 20
-30.0
 30
0.0
 40
16.0312195418813985
  0
CIRCLE
  5
6F
100
AcDbEntity
100
AcDbCircle
  8
cut
 62
256
370
-1
  6
ByLayer
 10
-146.3709677419354875
 20
-50.5322580645161281
 30
0.0
 40
6.4783719258447467
  0
CIRCLE
  5
70
100
AcDbEntity
100
AcDbCircle
  8
cut
 62
256
370
-1
  6
ByLayer
 10
-146.6953125
 20
-9.8437499999999982
 30
0.0
 40
7.0506027072269664
  0
CIRCLE
  5
71
100
AcDbEntity
100
AcDbCircle
  8
cut
 62
256
370
-1
  6
ByLayer
 10
-60.0000000000000071
 20
-30.0
 30
0.0
 40
27.0
  0
CIRCLE
  5
72
100
AcDbEntity
100
AcDbCircle
  8
cut
 62
256
370
-1
  6
ByLayer
 10
-99.5365853658536537
 20
-15.7317073170731732
 30
0.0
 40
12.7401383167827316
  0
CIRCLE
  5
73
100
AcDbEntity
100
AcDbCircle
  8
cut
 62
256
370
-1
  6
ByLayer
 10
-95.3028169014084483
 20
-47.8521126760563362
 30
0.0
 40
9.1528979327504665
  0
ENDBLK
  5
74
100
AcDbEntity
  8
0
100
AcDbBlockEnd
  0
BLOCK
  5
75
100
AcDbEntity
  8
0
100
AcDbBlockBegin
  2
innen B 5x
 70
0
 10
0.0
 20
0.0
 30
0.0
  3
innen B 5x
  1

  0
CIRCLE
  5
76
100
AcDbEntity
100
AcDbCircle
  8
cut
 62
256
370
-1
  6
ByLayer
 10
176.0
 20
-30.0
 30
0.0
 40
27.0
  0
CIRCLE
  5
77
100
AcDbEntity
100
AcDbCircle
  8
cut
 62
256
370
-1
  6
ByLayer
 10
130.0
 20
-30.0
 30
0.0
 40
15.0
  0
CIRCLE
  5
78
100
AcDbEntity
100
AcDbCircle
  8
cut
 62
256
370
-1
  6
ByLayer
 10
145.0
 20
-9.0
 30
0.0
 40
6.4031242374328485
  0
CIRCLE
  5
79
100
AcDbEntity
100
AcDbCircle
  8
cut
 62
256
370
-1
  6
ByLayer
 10
123.0
 20
-7.0
 30
0.0
 40
5.0
  0
CIRCLE
  5
7A
100
AcDbEntity
100
AcDbCircle
  8
cut
 62
256
370
-1
  6
ByLayer
 10
146.0
 20
-51.0
 30
0.0
 40
6.4031242374328485
  0
CIRCLE
  5
7B
100
AcDbEntity
100
AcDbCircle
  8
cut
 62
256
370
-1
  6
ByLayer
 10
-10.0
 20
-30.0
 30
0.0
 40
15.0
  0
CIRCLE
  5
7C
100
AcDbEntity
100
AcDbCircle
  8
cut
 62
256
370
-1
  6
ByLayer
 10
78.0
 20
-30.0
 30
0.0
 40
27.0
  0
CIRCLE
  5
7D
100
AcDbEntity
100
AcDbCircle
  8
cut
 62
256
370
-1
  6
ByLayer
 10
28.0
 20
-30.0
 30
0.0
 40
20.0
  0
CIRCLE
  5
7E
100
AcDbEntity
100
AcDbCircle
  8
cut
 62
256
370
-1
  6
ByLayer
 10
10.0
 20
-52.0
 30
0.0
 40
5.0
  0
CIRCLE
  5
7F
100
AcDbEntity
100
AcDbCircle
  8
cut
 62
256
370
-1
  6
ByLayer
 10
8.6148351928654954
 20
-8.0
 30
0.0
 40
5.3851648071345037
  0
CIRCLE
  5
80
100
AcDbEntity
100
AcDbCircle
  8
cut
 62
256
370
-1
  6
ByLayer
 10
48.4031242374328485
 20
-9.0
 30
0.0
 40
6.4031242374328485
  0
CIRCLE
  5
81
100
AcDbEntity
100
AcDbCircle
  8
cut
 62
256
370
-1
  6
ByLayer
 10
48.9172374697017815
 20
-51.0
 30
0.0
 40
6.0827625302982193
  0
CIRCLE
  5
82
100
AcDbEntity
100
AcDbCircle
  8
cut
 62
256
370
-1
  6
ByLayer
 10
111.7537887487646771
 20
-49.0
 30
0.0
 40
8.2462112512353212
  0
CIRCLE
  5
83
100
AcDbEntity
100
AcDbCircle
  8
cut
 62
256
370
-1
  6
ByLayer
 10
130.0
 20
-53.0
 30
0.0
 40
5.0990195135927845
  0
ENDBLK
  5
84
100
AcDbEntity
  8
0
100
AcDbBlockEnd
  0
BLOCK
  5
85
100
AcDbEntity
  8
0
100
AcDbBlockBegin
  2
kasten C 2x
 70
0
 10
0.0
 20
0.0
 30
0.0
  3
kasten C 2x
  1

  0
ENDBLK
  5
86
100
AcDbEntity
  8
0
100
AcDbBlockEnd
  0
BLOCK
  5
87
100
AcDbEntity
  8
0
100
AcDbBlockBegin
  2
innen C 2x
 70
0
 10
0.0
 20
0.0
 30
0.0
  3
innen C 2x
  1

  0
CIRCLE
  5
88
100
AcDbEntity
100
AcDbCircle
  8
cut
 62
256
370
-1
  6
ByLayer
 10
30.0
 20
-185.0
 30
0.0
 40
15.0
  0
CIRCLE
  5
89
100
AcDbEntity
100
AcDbCircle
  8
cut
 62
256
370
-1
  6
ByLayer
 10
30.0
 20
-119.0
 30
0.0
 40
27.0
  0
CIRCLE
  5
8A
100
AcDbEntity
100
AcDbCircle
  8
cut
 62
256
370
-1
  6
ByLayer
 10
30.0
 20
-58.0
 30
0.0
 40
25.0
  0
CIRCLE
  5
8B
100
AcDbEntity
100
AcDbCircle
  8
cut
 62
256
370
-1
  6
ByLayer
 10
10.0
 20
-89.0
 30
0.0
 40
7.2111025509279782
  0
CIRCLE
  5
8C
100
AcDbEntity
100
AcDbCircle
  8
cut
 62
256
370
-1
  6
ByLayer
 10
9.0
 20
-31.0
 30
0.0
 40
5.8309518948453007
  0
CIRCLE
  5
8D
100
AcDbEntity
100
AcDbCircle
  8
cut
 62
256
370
-1
  6
ByLayer
 10
52.0
 20
-30.0
 30
0.0
 40
5.3851648071345037
  0
CIRCLE
  5
8E
100
AcDbEntity
100
AcDbCircle
  8
cut
 62
256
370
-1
  6
ByLayer
 10
16.0
 20
-159.0
 30
0.0
 40
12.2065556157337021
  0
CIRCLE
  5
8F
100
AcDbEntity
100
AcDbCircle
  8
cut
 62
256
370
-1
  6
ByLayer
 10
44.0
 20
-158.2065556157336914
 30
0.0
 40
12.2065556157337021
  0
ENDBLK
  5
90
100
AcDbEntity
  8
0
100
AcDbBlockEnd
  0
BLOCK
  5
91
100
AcDbEntity
  8
0
100
AcDbBlockBegin
  2
aussen C 2x
 70
0
 10
0.0
 20
0.0
 30
0.0
  3
aussen C 2x
  1

  0
LINE
  5
92
100
AcDbEntity
100
AcDbLine
  8
cut
 62
256
370
-1
  6
ByLayer
 10
-20.0
 20
-85.0
 30
0.0
 11
-30.0
 21
-85.0
 31
0.0
  0
LINE
  5
93
100
AcDbEntity
100
AcDbLine
  8
cut
 62
256
370
-1
  6
ByLayer
 10
-30.0
 20
-85.0
 30
0.0
 11
-30.0
 21
-89.0
 31
0.0
  0
LINE
  5
94
100
AcDbEntity
100
AcDbLine
  8
cut
 62
256
370
-1
  6
ByLayer
 10
-30.0
 20
-89.0
 30
0.0
 11
-20.0
 21
-89.0
 31
0.0
  0
LINE
  5
95
100
AcDbEntity
100
AcDbLine
  8
cut
 62
256
370
-1
  6
ByLayer
 10
-20.0
 20
-89.0
 30
0.0
 11
-20.0
 21
-85.0
 31
0.0
  0
LINE
  5
96
100
AcDbEntity
100
AcDbLine
  8
cut
 62
256
370
-1
  6
ByLayer
 10
-40.0
 20
-85.0
 30
0.0
 11
-50.0
 21
-85.0
 31
0.0
  0
LINE
  5
97
100
AcDbEntity
100
AcDbLine
  8
cut
 62
256
370
-1
  6
ByLayer
 10
-50.0
 20
-85.0
 30
0.0
 11
-50.0
 21
-89.0
 31
0.0
  0
LINE
  5
98
100
AcDbEntity
100
AcDbLine
  8
cut
 62
256
370
-1
  6
ByLayer
 10
-50.0
 20
-89.0
 30
0.0
 11
-40.0
 21
-89.0
 31
0.0
  0
LINE
  5
99
100
AcDbEntity
100
AcDbLine
  8
cut
 62
256
370
-1
  6
ByLayer
 10
-40.0
 20
-89.0
 30
0.0
 11
-40.0
 21
-85.0
 31
0.0
  0
ENDBLK
  5
9A
100
AcDbEntity
  8
0
100
AcDbBlockEnd
  0
ENDSEC
  0
SECTION
  2
ENTITIES
  0
LINE
  5
9B
100
AcDbEntity
100
AcDbLine
  8
cut
 62
256
370
-1
  6
ByLayer
 10
108.0
 20
60.0000000000001279
 30
0.0
 11
112.0
 21
59.9999999999999929
 31
0.0
  0
LINE
  5
9C
100
AcDbEntity
100
AcDbLine
  8
cut
 62
256
370
-1
  6
ByLayer
 10
112.0
 20
59.9999999999999929
 30
0.0
 11
112.0
 21
49.9999999999999716
 31
0.0
  0
LINE
  5
9D
100
AcDbEntity
100
AcDbLine
  8
cut
 62
256
370
-1
  6
ByLayer
 10
112.0
 20
49.9999999999999716
 30
0.0
 11
108.0
 21
50.0000000000000497
 31
0.0
  0
LINE
  5
9E
100
AcDbEntity
100
AcDbLine
  8
cut
 62
256
370
-1
  6
ByLayer
 10
108.0
 20
50.0000000000000497
 30
0.0
 11
108.0
 21
60.0000000000001279
 31
0.0
  0
LINE
  5
9F
100
AcDbEntity
100
AcDbLine
  8
cut
 62
256
370
-1
  6
ByLayer
 10
107.9999999999999858
 20
40.0000000000000284
 30
0.0
 11
112.0
 21
39.9999999999999716
 31
0.0
  0
LINE
  5
A0
100
AcDbEntity
100
AcDbLine
  8
cut
 62
256
370
-1
  6
ByLayer
 10
112.0
 20
39.9999999999999716
 30
0.0
 11
112.0
 21
30.0000000000000071
 31
0.0
  0
LINE
  5
A1
100
AcDbEntity
100
AcDbLine
  8
cut
 62
256
370
-1
  6
ByLayer
 10
112.0
 20
30.0000000000000071
 30
0.0
 11
107.9999999999999858
 21
30.0000000000000426
 31
0.0
  0
LINE
  5
A2
100
AcDbEntity
100
AcDbLine
  8
cut
 62
256
370
-1
  6
ByLayer
 10
107.9999999999999858
 20
30.0000000000000426
 30
0.0
 11
107.9999999999999858
 21
40.0000000000000284
 31
0.0
  0
LINE
  5
A3
100
AcDbEntity
100
AcDbLine
  8
cut
 62
256
370
-1
  6
ByLayer
 10
108.0
 20
130.0000000000001137
 30
0.0
 11
112.0
 21
130.0
 31
0.0
  0
LINE
  5
A4
100
AcDbEntity
100
AcDbLine
  8
cut
 62
256
370
-1
  6
ByLayer
 10
112.0
 20
130.0
 30
0.0
 11
112.0
 21
119.9999999999999716
 31
0.0
  0
LINE
  5
A5
100
AcDbEntity
100
AcDbLine
  8
cut
 62
256
370
-1
  6
ByLayer
 10
112.0
 20
119.9999999999999716
 30
0.0
 11
108.0
 21
120.0000000000000568
 31
0.0
  0
LINE
  5
A6
100
AcDbEntity
100
AcDbLine
  8
cut
 62
256
370
-1
  6
ByLayer
 10
108.0
 20
120.0000000000000568
 30
0.0
 11
108.0
 21
130.0000000000001137
 31
0.0
  0
LINE
  5
A7
100
AcDbEntity
100
AcDbLine
  8
cut
 62
256
370
-1
  6
ByLayer
 10
107.9999999999999858
 20
110.0000000000000284
 30
0.0
 11
112.0
 21
109.9999999999999716
 31
0.0
  0
LINE
  5
A8
100
AcDbEntity
100
AcDbLine
  8
cut
 62
256
370
-1
  6
ByLayer
 10
112.0
 20
109.9999999999999716
 30
0.0
 11
112.0
 21
100.0
 31
0.0
  0
LINE
  5
A9
100
AcDbEntity
100
AcDbLine
  8
cut
 62
256
370
-1
  6
ByLayer
 10
112.0
 20
100.0
 30
0.0
 11
107.9999999999999858
 21
100.0000000000000426
 31
0.0
  0
LINE
  5
AA
100
AcDbEntity
100
AcDbLine
  8
cut
 62
256
370
-1
  6
ByLayer
 10
107.9999999999999858
 20
100.0000000000000426
 30
0.0
 11
107.9999999999999858
 21
110.0000000000000284
 31
0.0
  0
LINE
  5
AB
100
AcDbEntity
100
AcDbLine
  8
cut
 62
256
370
-1
  6
ByLayer
 10
152.0
 20
159.999999999999801
 30
0.0
 11
148.0
 21
160.0
 31
0.0
  0
LINE
  5
AC
100
AcDbEntity
100
AcDbLine
  8
cut
 62
256
370
-1
  6
ByLayer
 10
148.0
 20
160.0
 30
0.0
 11
148.0
 21
169.9999999999999716
 31
0.0
  0
LINE
  5
AD
100
AcDbEntity
100
AcDbLine
  8
cut
 62
256
370
-1
  6
ByLayer
 10
148.0
 20
169.9999999999999716
 30
0.0
 11
151.9999999999999716
 21
169.9999999999998295
 31
0.0
  0
LINE
  5
AE
100
AcDbEntity
100
AcDbLine
  8
cut
 62
256
370
-1
  6
ByLayer
 10
151.9999999999999716
 20
169.9999999999998295
 30
0.0
 11
152.0
 21
159.999999999999801
 31
0.0
  0
LINE
  5
AF
100
AcDbEntity
100
AcDbLine
  8
cut
 62
256
370
-1
  6
ByLayer
 10
152.0
 20
179.9999999999999432
 30
0.0
 11
148.0
 21
179.9999999999999716
 31
0.0
  0
LINE
  5
B0
100
AcDbEntity
100
AcDbLine
  8
cut
 62
256
370
-1
  6
ByLayer
 10
148.0
 20
179.9999999999999716
 30
0.0
 11
148.0
 21
189.9999999999999432
 31
0.0
  0
LINE
  5
B1
100
AcDbEntity
100
AcDbLine
  8
cut
 62
256
370
-1
  6
ByLayer
 10
148.0
 20
189.9999999999999432
 30
0.0
 11
152.0
 21
189.9999999999999432
 31
0.0
  0
LINE
  5
B2
100
AcDbEntity
100
AcDbLine
  8
cut
 62
256
370
-1
  6
ByLayer
 10
152.0
 20
189.9999999999999432
 30
0.0
 11
152.0
 21
179.9999999999999432
 31
0.0
  0
LINE
  5
B3
100
AcDbEntity
100
AcDbLine
  8
cut
 62
256
370
-1
  6
ByLayer
 10
152.0
 20
229.999999999999801
 30
0.0
 11
148.0
 21
230.0
 31
0.0
  0
LINE
  5
B4
100
AcDbEntity
100
AcDbLine
  8
cut
 62
256
370
-1
  6
ByLayer
 10
148.0
 20
230.0
 30
0.0
 11
148.0
 21
239.9999999999999716
 31
0.0
  0
LINE
  5
B5
100
AcDbEntity
100
AcDbLine
  8
cut
 62
256
370
-1
  6
ByLayer
 10
148.0
 20
239.9999999999999716
 30
0.0
 11
151.9999999999999716
 21
239.9999999999998295
 31
0.0
  0
LINE
  5
B6
100
AcDbEntity
100
AcDbLine
  8
cut
 62
256
370
-1
  6
ByLayer
 10
151.9999999999999716
 20
239.9999999999998295
 30
0.0
 11
152.0
 21
229.999999999999801
 31
0.0
  0
LINE
  5
B7
100
AcDbEntity
100
AcDbLine
  8
cut
 62
256
370
-1
  6
ByLayer
 10
152.0
 20
249.9999999999999432
 30
0.0
 11
148.0
 21
249.9999999999999716
 31
0.0
  0
LINE
  5
B8
100
AcDbEntity
100
AcDbLine
  8
cut
 62
256
370
-1
  6
ByLayer
 10
148.0
 20
249.9999999999999716
 30
0.0
 11
148.0
 21
259.9999999999999432
 31
0.0
  0
LINE
  5
B9
100
AcDbEntity
100
AcDbLine
  8
cut
 62
256
370
-1
  6
ByLayer
 10
148.0
 20
259.9999999999999432
 30
0.0
 11
152.0
 21
259.9999999999999432
 31
0.0
  0
LINE
  5
BA
100
AcDbEntity
100
AcDbLine
  8
cut
 62
256
370
-1
  6
ByLayer
 10
152.0
 20
259.9999999999999432
 30
0.0
 11
152.0
 21
249.9999999999999432
 31
0.0
  0
LINE
  5
BB
100
AcDbEntity
100
AcDbLine
  8
cut
 62
256
370
-1
  6
ByLayer
 10
300.0
 20
195.0
 30
0.0
 11
290.0
 21
195.0
 31
0.0
  0
LINE
  5
BC
100
AcDbEntity
100
AcDbLine
  8
cut
 62
256
370
-1
  6
ByLayer
 10
290.0
 20
195.0
 30
0.0
 11
289.9999999999999432
 21
191.0
 31
0.0
  0
LINE
  5
BD
100
AcDbEntity
100
AcDbLine
  8
cut
 62
256
370
-1
  6
ByLayer
 10
289.9999999999999432
 20
191.0
 30
0.0
 11
300.0
 21
191.0
 31
0.0
  0
LINE
  5
BE
100
AcDbEntity
100
AcDbLine
  8
cut
 62
256
370
-1
  6
ByLayer
 10
300.0
 20
191.0
 30
0.0
 11
300.0
 21
195.0
 31
0.0
  0
LINE
  5
BF
100
AcDbEntity
100
AcDbLine
  8
cut
 62
256
370
-1
  6
ByLayer
 10
280.0
 20
195.0
 30
0.0
 11
270.0
 21
195.0
 31
0.0
  0
LINE
  5
C0
100
AcDbEntity
100
AcDbLine
  8
cut
 62
256
370
-1
  6
ByLayer
 10
270.0
 20
195.0
 30
0.0
 11
269.9999999999999432
 21
191.0
 31
0.0
  0
LINE
  5
C1
100
AcDbEntity
100
AcDbLine
  8
cut
 62
256
370
-1
  6
ByLayer
 10
269.9999999999999432
 20
191.0
 30
0.0
 11
279.9999999999999432
 21
191.0
 31
0.0
  0
LINE
  5
C2
100
AcDbEntity
100
AcDbLine
  8
cut
 62
256
370
-1
  6
ByLayer
 10
279.9999999999999432
 20
191.0
 30
0.0
 11
280.0
 21
195.0
 31
0.0
  0
ENDSEC
  0
SECTION
  2
OBJECTS
  0
DICTIONARY
  5
C
100
AcDbDictionary
280
0
281
1
  3
ACAD_GROUP
350
D
  3
ACAD_LAYOUT
350
1A
  3
ACAD_MLINESTYLE
350
17
  3
ACAD_PLOTSETTINGS
350
19
  3
ACAD_PLOTSTYLENAME
350
E
  3
AcDbVariableDictionary
350
C3
  0
DICTIONARY
  5
D
100
AcDbDictionary
280
0
281
1
  0
ACDBDICTIONARYWDFLT
  5
E
100
AcDbDictionary
281
1
  3
Normal
350
F
100
AcDbDictionaryWithDefault
340
F
  0
ACDBPLACEHOLDER
  5
F
  0
DICTIONARY
  5
17
100
AcDbDictionary
280
0
281
1
  3
Standard
350
18
  0
MLINESTYLE
  5
18
100
AcDbMlineStyle
  2
STANDARD
 70
0
  3

 62
256
 51
90.0
 52
90.0
 71
2
 49
0.5
 62
256
  6
BYLAYER
 49
-0.5
 62
256
  6
BYLAYER
  0
DICTIONARY
  5
19
100
AcDbDictionary
280
0
281
1
  0
DICTIONARY
  5
1A
100
AcDbDictionary
281
1
  3
Layout1
350
1E
  3
Layout2
350
26
  3
Model
350
22
  0
LAYOUT
  5
1E
100
AcDbPlotSettings
  1

  2
C:\Program Files\AutoCAD 2002\plotters\DWF ePlot (optimized for plotting).pc3
  4

  6

 40
0.0
 41
0.0
 42
0.0
 43
0.0
 44
0.0
 45
0.0
 46
0.0
 47
0.0
 48
0.0
 49
0.0
140
0.0
141
0.0
142
1.0
143
1.0
 70
688
 72
0
 73
0
 74
5
  7

 75
16
147
1.0
148
0.0
149
0.0
100
AcDbLayout
  1
Layout1
 70
1
 71
1
 10
0.0
 20
0.0
 11
420.0
 21
297.0
 12
0.0
 22
0.0
 32
0.0
 14
100000000000000000000.0
 24
100000000000000000000.0
 34
100000000000000000000.0
 15
-100000000000000000000.0
 25
-100000000000000000000.0
 35
-100000000000000000000.0
146
0.0
 13
0.0
 23
0.0
 33
0.0
 16
1.0
 26
0.0
 36
0.0
 17
0.0
 27
1.0
 37
0.0
 76
0
330
1B
  0
LAYOUT
  5
22
100
AcDbPlotSettings
  1

  2
C:\Program Files\AutoCAD 2002\plotters\DWF ePlot (optimized for plotting).pc3
  4

  6

 40
0.0
 41
0.0
 42
0.0
 43
0.0
 44
0.0
 45
0.0
 46
0.0
 47
0.0
 48
0.0
 49
0.0
140
0.0
141
0.0
142
1.0
143
1.0
 70
1712
 72
0
 73
0
 74
0
  7

 75
0
147
1.0
148
0.0
149
0.0
100
AcDbLayout
  1
Model
 70
1
 71
0
 10
0.0
 20
0.0
 11
12.0
 21
9.0
 12
0.0
 22
0.0
 32
0.0
 14
0.0
 24
0.0
 34
0.0
 15
0.0
 25
0.0
 35
0.0
146
0.0
 13
0.0
 23
0.0
 33
0.0
 16
1.0
 26
0.0
 36
0.0
 17
0.0
 27
1.0
 37
0.0
 76
0
330
1F
  0
LAYOUT
  5
26
100
AcDbPlotSettings
  1

  2
C:\Program Files\AutoCAD 2002\plotters\DWF ePlot (optimized for plotting).pc3
  4

  6

 40
0.0
 41
0.0
 42
0.0
 43
0.0
 44
0.0
 45
0.0
 46
0.0
 47
0.0
 48
0.0
 49
0.0
140
0.0
141
0.0
142
1.0
143
1.0
 70
688
 72
0
 73
0
 74
5
  7

 75
16
147
1.0
148
0.0
149
0.0
100
AcDbLayout
  1
Layout2
 70
1
 71
2
 10
0.0
 20
0.0
 11
12.0
 21
9.0
 12
0.0
 22
0.0
 32
0.0
 14
0.0
 24
0.0
 34
0.0
 15
0.0
 25
0.0
 35
0.0
146
0.0
 13
0.0
 23
0.0
 33
0.0
 16
1.0
 26
0.0
 36
0.0
 17
0.0
 27
1.0
 37
0.0
 76
0
330
23
  0
DICTIONARY
  5
C3
100
AcDbDictionary
281
1
  3
DIMASSOC
350
C5
  3
HIDETEXT
350
C4
  0
DICTIONARYVAR
  5
C4
100
DictionaryVariables
280
0
  1
2
  0
DICTIONARYVAR
  5
C5
100
DictionaryVariables
280
0
  1
1
  0
ENDSEC
  0
EOF
